<svg xmlns="http://www.w3.org/2000/svg" width="24" height="24" viewBox="0 0 48 48">
  <path fill="#4285F4" d="M24 9.5c3.54 0 6.7 1.22 9.18 3.6l6.87-6.87C34.6 2.7 29.6 0 24 0 14.8 0 6.9 5.6 3.3 13.6l7.98 6.2C12.9 13.1 18.1 9.5 24 9.5z"/>
  <path fill="#34A853" d="M46.5 24c0-1.6-.15-3.1-.43-4.6H24v9h12.7c-.55 3-2.2 5.5-4.7 7.2l7.3 5.7c4.3-4 6.8-9.8 6.8-17.3z"/>
  <path fill="#FBBC05" d="M10.3 28.8c-.5-1.5-.8-3.1-.8-4.8s.3-3.3.8-4.8L2.3 13.6C.8 17.3 0 21.5 0 26c0 4.5.8 8.7 2.3 12.4l8-6.2z"/>
  <path fill="#EA4335" d="M24 48c6.5 0 12-2.1 16-5.7l-7.7-6c-2.3 1.5-5.2 2.4-8.3 2.4-5.9 0-10.9-4-12.7-9.4l-8 6.2C6.9 42.4 14.8 48 24 48z"/>
</svg>
