<svg viewBox="0 0 24 24" aria-hidden="true" xmlns="http://www.w3.org/2000/svg">
  <path d="M23.954 4.569c-0.885 0.392-1.83 0.656-2.825 0.775 
           1.014-0.611 1.794-1.574 2.163-2.723-0.951 0.564-2.005 0.974-3.127 1.195
           -0.897-0.957-2.178-1.555-3.594-1.555-2.717 0-4.92 2.203-4.92 4.917 
           0 0.39 0.045 0.765 0.127 1.124-4.09-0.205-7.719-2.165-10.148-5.144
           -0.424 0.729-0.666 1.577-0.666 2.475 0 1.708 0.87 3.216 2.188 4.099
           -0.807-0.026-1.566-0.247-2.228-0.616v0.061c0 2.385 1.693 4.374 3.946 4.827
           -0.413 0.111-0.849 0.171-1.296 0.171-0.317 0-0.626-0.03-0.928-0.086
           0.627 1.956 2.444 3.377 4.6 3.419-1.68 1.319-3.809 2.105-6.102 2.105
           -0.396 0-0.787-0.023-1.175-0.069 2.179 1.397 4.768 2.213 7.557 2.213
           9.054 0 14-7.496 14-13.986 0-0.21-0.004-0.423-0.014-0.634
           0.961-0.689 1.8-1.56 2.46-2.548l-0.047-0.02z"/>
</svg>
